Patient4_TMGait_0pt6_01_left_41_EMG.mot
version=1
nRows=27
nColumns=33
inDegrees=no
endheader
time	1LAddLong	2LGlutMax	3LGlutMed	4LIliopsoas	5LSemiMemb	6LBicFemLong	7LRecFem	8LVastMed	9LVastLat	10LGasMed	11LTibAnt	12lTibPost	13LPeroneusLong	14LSol	15LExtDigLong	16LFlexDigLong	17RAddLong	18RGlutMax	19RGlutMed	20RIliopsoas	21RSemiMemb	22RBicFemLong	23RRecFem	24RVastMed	25RVastLat	26RGasMed	27RTibAnt	28RTibPost	29RPeroneusLong	30RSol	31RExtDigLong	32RFlexDigLong
50.302	0.003357	1.5666	-0.21164	0.017242	-0.088196	-0.014954	0.81222	-0.023041	-0.86884	0.021973	-0.056	0.018158	-0.02533	0.10239	0.27069	-0.063782	0.053864	-0.02594	-0.12863	0.09613	-0.060425	-0.062714	0.61783	-0.1004	-0.045013	0.019836	-0.08728	-0.003967	0.067749	-0.15121	0.001984	-0.006256
50.303	0.012512	1.4424	-0.19058	0.007782	-0.091858	0.020599	0.63232	-0.014343	-0.86121	0.053864	-0.019226	0.015259	-0.056763	0.065308	0.18707	0.42191	0.11185	-0.052643	0.052338	-0.02594	-0.034027	0.032959	0.74646	-0.13931	-0.056458	0.006256	0.28122	-0.008087	-0.14664	0.042877	-0.002899	-0.005035
50.304	0.014191	1.4407	-0.10086	-0.008545	-0.10895	0.033569	0.59433	-0.006104	-0.60516	0.043335	-0.013733	0.009308	-0.049133	0.11078	0.028381	0.17883	0.097656	-0.08667	0.063782	-0.13962	-0.01358	0.095062	0.74631	-0.17624	-0.066376	-0.000305	0.43243	-0.016479	-0.30487	0.078278	-0.00351	-0.012817
50.305	0.020599	1.4668	-0.078125	0	-0.051727	0.063782	0.50934	0.01297	-0.41153	0.037994	-0.024872	0.017548	-0.018158	0.031586	-0.044098	-0.38635	0.068054	-0.22217	-0.12924	-0.21759	-0.12619	0.15442	0.73471	-0.18143	-0.056152	-0.003052	0.36972	-0.007172	-0.26657	0.14816	-0.00412	-0.008545
50.306	0.019684	1.4578	-0.074463	0.011139	-0.016174	0.11047	0.39948	0.00824	-0.2919	0.068054	0.079803	0.010223	-0.072632	-0.072937	-0.074158	0.29831	0.065155	-0.38879	-0.32593	-0.14145	-0.13916	0.14969	0.58456	-0.083771	-0.005951	0.001221	-0.50644	-0.00946	-0.062103	0.12741	-0.006256	-0.017395
50.307	0.020599	1.2579	-0.15625	0.006409	0.02594	0.23956	0.36743	-0.001068	-0.20783	0.040436	0.24139	0.020752	-0.12299	-0.032043	0.10193	0.025177	0.037994	-0.52216	-0.45914	0.015717	-0.10254	0.033875	0.51239	-0.064392	0.005798	-0.006104	-0.49744	-0.011902	-0.08255	0.16174	-0.003052	-0.011292
50.308	0.029755	1.1197	-0.26062	0.010071	0.038147	0.11871	0.30823	0.006561	-0.18707	-0.007477	0.42465	0.022888	-0.16907	0.015869	0.21164	-0.43335	0.031281	-0.65781	-0.48843	0.2684	-0.11627	0.06424	0.50034	-0.066833	0.023041	-0.007172	-0.11688	-0.011139	-0.14404	0.23712	-0.002899	-0.018463
50.309	0.034027	0.97031	-0.31342	0.01236	0.021362	0.084076	0.28214	0.005035	-0.2063	-0.011902	0.48752	0.03006	-0.11231	0.089874	0.1088	0.15671	-0.028687	-0.73547	-0.4068	0.40741	-0.085297	0.28198	0.4274	0.032959	0.07019	0.000153	-0.31906	-0.003052	-0.067596	0.12024	-0.003357	-0.014038
50.31	0.031586	0.90088	-0.31479	0.003204	-0.000153	0.070038	0.21469	0.009613	-0.20111	0.01297	0.27618	0.028687	-0.069427	0.13565	0.021515	0.25757	-0.007477	-0.80933	-0.50858	0.3418	-0.010834	0.36346	0.49011	0.046997	0.05127	0.005188	-0.3421	0	-0.000458	-0.054932	-0.001068	-0.010071
50.311	0.035095	0.83008	-0.3273	0.008087	-0.013123	0.11307	0.11597	-0.007782	-0.19653	-0.02655	0.031281	0.032196	0.042267	0.29022	0.40955	-0.79239	-0.050354	-0.90439	-0.71426	0.31052	-0.012817	0.32486	0.47806	0.045776	0.027161	0.003204	-0.13275	-0.000916	-0.086212	-0.048676	-0.00473	-0.015564
50.312	0.031586	0.71274	-0.3627	0.01297	-0.028992	0.079651	0.046844	0.015717	-0.16495	-0.06485	-0.29923	0.039063	0.16556	0.4126	0.96725	0.35523	-0.13351	-0.92651	-0.77255	0.30319	0.052795	0.21179	0.49362	0.14755	0.04776	-0.007935	0.13489	-0.000305	-0.26489	-0.014038	-0.002136	-0.021362
50.313	0.033875	0.62851	-0.26749	0.038147	-0.049286	-0.21179	-0.063934	0.008545	-0.16129	-0.005951	-0.33493	0.041656	0.12711	0.28503	-0.34683	0.89142	-0.098114	-1.0342	-0.95169	0.25635	0.012512	0.12329	0.46097	0.21469	0.044708	-0.018005	0.54886	0.000763	-0.29388	-0.056763	-0.003815	-0.028076
50.314	0.036621	0.57754	-0.11765	0.03006	-0.072174	-0.30716	-0.097656	0.010071	-0.15991	0.054016	-0.11459	0.031128	-0.031738	0.15366	-0.35141	-0.67551	-0.059509	-1.0722	-0.93582	0.046387	-0.088959	0.089264	0.47318	0.16205	0.028076	-0.001831	0.70435	-0.000458	-0.12497	-0.1033	-0.002441	-0.026093
50.315	0.030975	0.56107	-0.090332	0.012665	-0.076752	-0.2002	-0.168	0.006714	-0.16281	0.079803	-0.072479	0.045166	-0.053864	0.059967	-0.53787	0.54825	-0.043335	-1.0365	-0.84259	-0.1416	-0.13519	0.18143	0.5072	0.14908	0.037689	0.01709	0.20493	0.00351	0.10193	-0.22247	-0.004578	-0.015259
50.316	0.026703	0.47211	0.009613	0.001831	-0.081177	-0.080414	-0.27069	0.013733	-0.17807	0.10773	-0.12314	0.040741	0.011139	0.21423	-0.021667	-0.7515	-0.043335	-0.99381	-0.8786	-0.22629	-0.13092	0.26382	0.51254	0.13748	0.017853	0.03418	-0.082245	0.001221	0.35889	-0.32974	-0.003662	-0.019073
50.317	0.028381	0.36667	-0.01297	0.003967	0.004578	-0.045471	-0.32623	0.014191	-0.1741	0.10819	-0.086212	0.047913	-0.005493	0.2124	-0.12314	0.22614	-0.064545	-0.9346	-0.78613	-0.21713	-0.1358	0.28076	0.49469	0.23438	0.013885	0.024567	-0.43518	-0.002899	0.20187	-0.31601	-0.002289	-0.023499
50.318	0.027924	0.31403	-0.11231	-0.007782	0.012054	0.010223	-0.37659	0.014954	-0.16266	0.1178	-0.063934	0.04303	-0.042572	0.15625	-0.49683	-0.24338	-0.064392	-0.8725	-0.77057	-0.18997	-0.091095	0.16769	0.50369	0.20783	-0.013885	0.011292	0.17075	-0.006866	-0.16174	-0.31738	-0.007935	-0.018158
50.319	0.025635	0.30533	-0.044861	-0.004883	-0.010986	0.033264	-0.42984	0.007172	-0.12909	0.1648	-0.094604	0.042267	-0.080109	0.11658	-0.70572	-0.44403	-0.046539	-0.75546	-0.83099	-0.19882	-0.081482	0.058899	0.54474	0.04364	-0.049438	0.00885	0.21179	-0.002747	-0.19608	-0.18753	-0.004578	-0.022888
50.32	0.020142	0.3125	-0.046844	-0.00885	-0.022888	0.076294	-0.51193	0.008392	-0.11032	0.17822	-0.23651	0.059814	-0.099182	0.01709	-0.39566	0.50873	0.029449	-0.64117	-0.83588	-0.20783	-0.091705	-0.002594	0.57816	-0.025787	-0.0737	0.00824	0.27557	-0.00351	-0.19623	-0.064697	-0.002136	-0.027313
50.321	0.016479	0.30304	-0.061798	-0.011902	-0.037842	0.077667	-0.57037	0.032196	-0.12451	-0.093384	-0.21698	0.064392	0.010376	0.092316	-0.33173	-0.47882	0.055695	-0.63461	-0.75531	-0.1471	-0.054321	-0.033875	0.52033	-0.059662	-0.08194	0.009918	0.5339	0.002899	0.075684	-0.14542	-0.003357	-0.017242
50.322	0.021973	0.26306	-0.062256	-0.014648	-0.045624	0.061798	-0.5957	0.026398	-0.11292	-0.12207	-0.1593	0.073395	0.074768	-0.17227	-0.2626	0.3537	0.045776	-0.63644	-0.70068	-0.11002	0.006256	-0.23682	0.54138	-0.13092	-0.095825	0.024567	-0.40375	-0.001678	0.35309	-0.11108	-0.005646	-0.007935
50.323	0.020447	0.19241	-0.029297	-0.001526	-0.044556	0.049591	-0.72815	0.018463	-0.050201	-0.10193	-0.078278	0.090027	0.028992	-0.47852	-0.070496	0.36682	0.029602	-0.51666	-0.72662	-0.020142	-0.042725	-0.21957	0.54245	-0.21316	-0.11093	-0.000305	-0.34485	-0.002289	0.10574	0.21164	-0.000916	-0.018921
50.324	0.02594	0.15808	-0.001373	0.027771	-0.041199	0.052643	-0.75134	0.016632	-0.001526	-0.20081	-0.027924	-0.005035	-0.002594	-0.64011	0.057526	0.15228	-0.019836	-0.45136	-0.75272	0.032959	-0.14893	-0.036621	0.5159	-0.23911	-0.07782	-0.014496	-0.16449	0.001678	-0.16388	0.215	-0.00412	-0.011139
50.325	0.014038	0.15671	0.19211	0.031128	-0.043945	0.084991	-0.72464	0.006104	0.017548	-0.13916	0.012054	-0.000916	0.007172	-0.56503	0.09964	0.010071	-0.041199	-0.3447	-0.73151	0.082703	-0.17883	0.00824	0.55267	-0.21957	-0.073547	-0.013733	0.069885	0.000763	-0.33691	0.0737	-0.004883	-0.017242
50.326	0.011444	0.1355	0.14847	0.015106	-0.044861	0.077515	-0.73532	0.007172	0.062103	-0.1593	0.036163	0.002136	-0.028229	-0.098877	0.14236	0.12222	-0.043182	-0.30258	-0.90424	0.11414	-0.17181	0.046387	0.53802	-0.19455	-0.058289	-0.005035	0.4126	0.000458	-0.29694	-0.041656	-0.004883	-0.011292
50.327	0.007324	0.053864	0.12039	0.014954	-0.050507	0.0737	-0.72235	0.012054	0.17151	-0.027466	-0.018158	-0.045471	-0.01709	0.23575	0.29938	-0.59021	-0.030975	-0.23056	-0.90225	0.093689	-0.16922	0.14389	0.4834	-0.19333	-0.055847	-0.003052	0.62103	0.002899	-0.18768	0.084534	-0.00351	-0.010681
50.328	0.006104	0.030212	0.018158	0.022125	-0.046387	0.064392	-0.72174	0.007324	0.16235	-0.005188	-0.13489	0.014648	0.038452	-0.074463	0.4277	0.39932	-0.031433	-0.1413	-0.52353	0.21927	-0.18555	0.20096	0.49972	-0.20538	-0.041046	0.003967	0.25055	0.008698	-0.046539	0.010681	-0.001068	-0.012207
